<svg width="1280" height="225" viewBox="0 0 1280 225" fill="none" xmlns="http://www.w3.org/2000/svg">
<g clip-path="url(#clip0_2671_4043)">
<path d="M0 20C0 8.9543 8.95431 0 20 0H1260C1271.05 0 1280 8.95431 1280 20V205C1280 216.046 1271.05 225 1260 225H20C8.95431 225 0 216.046 0 205V20Z" fill="#0F1832"/>
<g filter="url(#filter0_f_2671_4043)">
<path d="M1062.46 53.6321C670.717 -179.405 333.235 -43.4902 213.463 53.5969C183.817 175.462 464.053 266.45 607.877 296.712C922.634 312.784 1454.21 286.669 1062.46 53.6321Z" fill="#0231FF" fill-opacity="0.7"/>
</g>
<g filter="url(#filter1_f_2671_4043)">
<path d="M922.306 350.119C777.53 493.098 831.106 686.374 875.992 765.14C875.992 894.685 1324.56 863.498 1504.67 765.14C1684.78 666.783 1609.31 521.645 1615.31 350.119C1620.12 212.898 1423.48 168.198 1324.56 163C1250.8 165.799 1067.08 207.141 922.306 350.119Z" fill="#6C01DB"/>
</g>
<path d="M-863.165 -544.181C-859.655 -577.9 -823.242 -597.454 -793.194 -581.753L1716.64 729.65C1750.79 747.489 1751.06 796.256 1717.12 814.481L-1085.92 2319.65C-1119.86 2337.88 -1160.36 2310.71 -1156.37 2272.39L-863.165 -544.181Z" fill="#6F5AC8" fill-opacity="0.1"/>
<path d="M-863.165 -624.181C-859.655 -657.9 -823.242 -677.454 -793.194 -661.753L1716.64 649.65C1750.79 667.489 1751.06 716.256 1717.12 734.481L-1085.92 2239.65C-1119.86 2257.88 -1160.36 2230.71 -1156.37 2192.39L-863.165 -624.181Z" fill="#6F5AC8" fill-opacity="0.1"/>
<path d="M-863.165 -700.181C-859.655 -733.9 -823.242 -753.454 -793.194 -737.753L1716.64 573.65C1750.79 591.489 1751.06 640.256 1717.12 658.481L-1085.92 2163.65C-1119.86 2181.88 -1160.36 2154.71 -1156.37 2116.39L-863.165 -700.181Z" fill="#6F5AC8" fill-opacity="0.1"/>
<path d="M-863.165 -775.181C-859.655 -808.9 -823.242 -828.454 -793.194 -812.753L1716.64 498.65C1750.79 516.489 1751.06 565.256 1717.12 583.481L-1085.92 2088.65C-1119.86 2106.88 -1160.36 2079.71 -1156.37 2041.39L-863.165 -775.181Z" fill="#6F5AC8" fill-opacity="0.1"/>
<path d="M-863.165 -850.181C-859.655 -883.9 -823.242 -903.454 -793.194 -887.753L1716.64 423.65C1750.79 441.489 1751.06 490.256 1717.12 508.481L-1085.92 2013.65C-1119.86 2031.88 -1160.36 2004.71 -1156.37 1966.39L-863.165 -850.181Z" fill="#6F5AC8" fill-opacity="0.1"/>
<path d="M-724.802 -850.181C-721.291 -883.9 -684.878 -903.454 -654.831 -887.753L1855.01 423.65C1889.15 441.489 1889.42 490.256 1855.49 508.481L-947.554 2013.65C-981.493 2031.88 -1021.99 2004.71 -1018 1966.39L-724.802 -850.181Z" fill="#6F5AC8" fill-opacity="0.1"/>
<g filter="url(#filter2_f_2671_4043)">
<circle cx="-183" cy="-183" r="367" fill="#031150"/>
</g>
<g clip-path="url(#clip1_2671_4043)">
<path d="M48 57C48 50.3726 53.3726 45 60 45H116C122.627 45 128 50.3726 128 57V113C128 119.627 122.627 125 116 125H60C53.3726 125 48 119.627 48 113V57Z" fill="white"/>
<g clip-path="url(#clip2_2671_4043)">
<rect width="80" height="80" transform="translate(48 45)" fill="black"/>
<g clip-path="url(#clip3_2671_4043)">
<path d="M88 125C110.091 125 128 107.091 128 85C128 62.9086 110.091 45 88 45C65.9086 45 48 62.9086 48 85C48 107.091 65.9086 125 88 125Z" fill="black"/>
<path d="M114.448 115.009L78.7294 69H72V100.987H77.3837V75.8369L110.221 118.264C111.701 117.274 113.113 116.187 114.448 115.009Z" fill="url(#paint0_linear_2671_4043)"/>
<path d="M99.1113 69H104.444V101H99.1113V69Z" fill="url(#paint1_linear_2671_4043)"/>
</g>
</g>
</g>
<path d="M50.8764 147.818H55.6705L64.0057 168.17H64.3125L72.6477 147.818H77.4418V174H73.6832V155.054H73.4403L65.7188 173.962H62.5994L54.8778 155.041H54.6349V174H50.8764V147.818ZM91.1495 174.396C89.3086 174.396 87.7021 173.974 86.3299 173.131C84.9577 172.287 83.8924 171.107 83.1339 169.589C82.3754 168.072 81.9961 166.3 81.9961 164.271C81.9961 162.234 82.3754 160.453 83.1339 158.928C83.8924 157.402 84.9577 156.217 86.3299 155.374C87.7021 154.53 89.3086 154.108 91.1495 154.108C92.9904 154.108 94.5969 154.53 95.9691 155.374C97.3413 156.217 98.4066 157.402 99.1651 158.928C99.9237 160.453 100.303 162.234 100.303 164.271C100.303 166.3 99.9237 168.072 99.1651 169.589C98.4066 171.107 97.3413 172.287 95.9691 173.131C94.5969 173.974 92.9904 174.396 91.1495 174.396ZM91.1623 171.188C92.3555 171.188 93.3441 170.872 94.1282 170.241C94.9123 169.611 95.4918 168.771 95.8668 167.723C96.2504 166.675 96.4421 165.52 96.4421 164.259C96.4421 163.006 96.2504 161.855 95.8668 160.807C95.4918 159.75 94.9123 158.902 94.1282 158.263C93.3441 157.624 92.3555 157.304 91.1623 157.304C89.9606 157.304 88.9634 157.624 88.1708 158.263C87.3867 158.902 86.8029 159.75 86.4194 160.807C86.0444 161.855 85.8569 163.006 85.8569 164.259C85.8569 165.52 86.0444 166.675 86.4194 167.723C86.8029 168.771 87.3867 169.611 88.1708 170.241C88.9634 170.872 89.9606 171.188 91.1623 171.188ZM108.392 162.341V174H104.57V154.364H108.239V157.56H108.482C108.933 156.52 109.641 155.685 110.604 155.054C111.575 154.423 112.798 154.108 114.273 154.108C115.611 154.108 116.783 154.389 117.788 154.952C118.794 155.506 119.574 156.332 120.128 157.432C120.682 158.531 120.959 159.891 120.959 161.51V174H117.136V161.97C117.136 160.547 116.766 159.435 116.024 158.634C115.283 157.824 114.264 157.419 112.969 157.419C112.082 157.419 111.294 157.611 110.604 157.994C109.922 158.378 109.381 158.94 108.98 159.682C108.588 160.415 108.392 161.301 108.392 162.341ZM134.357 174.396C132.516 174.396 130.909 173.974 129.537 173.131C128.165 172.287 127.099 171.107 126.341 169.589C125.582 168.072 125.203 166.3 125.203 164.271C125.203 162.234 125.582 160.453 126.341 158.928C127.099 157.402 128.165 156.217 129.537 155.374C130.909 154.53 132.516 154.108 134.357 154.108C136.197 154.108 137.804 154.53 139.176 155.374C140.548 156.217 141.614 157.402 142.372 158.928C143.131 160.453 143.51 162.234 143.51 164.271C143.51 166.3 143.131 168.072 142.372 169.589C141.614 171.107 140.548 172.287 139.176 173.131C137.804 173.974 136.197 174.396 134.357 174.396ZM134.369 171.188C135.563 171.188 136.551 170.872 137.335 170.241C138.119 169.611 138.699 168.771 139.074 167.723C139.457 166.675 139.649 165.52 139.649 164.259C139.649 163.006 139.457 161.855 139.074 160.807C138.699 159.75 138.119 158.902 137.335 158.263C136.551 157.624 135.563 157.304 134.369 157.304C133.168 157.304 132.17 157.624 131.378 158.263C130.594 158.902 130.01 159.75 129.626 160.807C129.251 161.855 129.064 163.006 129.064 164.259C129.064 165.52 129.251 166.675 129.626 167.723C130.01 168.771 130.594 169.611 131.378 170.241C132.17 170.872 133.168 171.188 134.369 171.188ZM169.829 156.332H165.841C165.687 155.48 165.402 154.73 164.984 154.082C164.566 153.435 164.055 152.885 163.45 152.433C162.845 151.982 162.167 151.641 161.417 151.411C160.676 151.18 159.887 151.065 159.052 151.065C157.544 151.065 156.193 151.445 155 152.203C153.815 152.962 152.877 154.074 152.187 155.54C151.505 157.006 151.164 158.795 151.164 160.909C151.164 163.04 151.505 164.838 152.187 166.304C152.877 167.77 153.819 168.878 155.012 169.628C156.206 170.378 157.548 170.753 159.039 170.753C159.866 170.753 160.65 170.642 161.392 170.42C162.142 170.19 162.819 169.854 163.424 169.411C164.029 168.967 164.541 168.426 164.958 167.787C165.385 167.139 165.679 166.398 165.841 165.562L169.829 165.575C169.616 166.862 169.203 168.047 168.589 169.129C167.984 170.203 167.204 171.132 166.25 171.916C165.304 172.692 164.221 173.293 163.002 173.719C161.784 174.145 160.454 174.358 159.014 174.358C156.747 174.358 154.727 173.821 152.954 172.747C151.181 171.665 149.784 170.118 148.761 168.107C147.747 166.095 147.24 163.696 147.24 160.909C147.24 158.114 147.751 155.714 148.774 153.712C149.797 151.7 151.194 150.158 152.967 149.084C154.74 148.001 156.755 147.46 159.014 147.46C160.403 147.46 161.699 147.661 162.9 148.061C164.11 148.453 165.197 149.033 166.16 149.8C167.123 150.558 167.92 151.487 168.551 152.587C169.181 153.678 169.608 154.926 169.829 156.332ZM178.072 147.818V174H174.249V147.818H178.072ZM191.485 174.396C189.645 174.396 188.038 173.974 186.666 173.131C185.294 172.287 184.228 171.107 183.47 169.589C182.711 168.072 182.332 166.3 182.332 164.271C182.332 162.234 182.711 160.453 183.47 158.928C184.228 157.402 185.294 156.217 186.666 155.374C188.038 154.53 189.645 154.108 191.485 154.108C193.326 154.108 194.933 154.53 196.305 155.374C197.677 156.217 198.743 157.402 199.501 158.928C200.26 160.453 200.639 162.234 200.639 164.271C200.639 166.3 200.26 168.072 199.501 169.589C198.743 171.107 197.677 172.287 196.305 173.131C194.933 173.974 193.326 174.396 191.485 174.396ZM191.498 171.188C192.691 171.188 193.68 170.872 194.464 170.241C195.248 169.611 195.828 168.771 196.203 167.723C196.586 166.675 196.778 165.52 196.778 164.259C196.778 163.006 196.586 161.855 196.203 160.807C195.828 159.75 195.248 158.902 194.464 158.263C193.68 157.624 192.691 157.304 191.498 157.304C190.297 157.304 189.299 157.624 188.507 158.263C187.723 158.902 187.139 159.75 186.755 160.807C186.38 161.855 186.193 163.006 186.193 164.259C186.193 165.52 186.38 166.675 186.755 167.723C187.139 168.771 187.723 169.611 188.507 170.241C189.299 170.872 190.297 171.188 191.498 171.188ZM217.344 165.857V154.364H221.18V174H217.421V170.599H217.217C216.765 171.648 216.04 172.521 215.043 173.22C214.055 173.911 212.823 174.256 211.349 174.256C210.087 174.256 208.971 173.979 207.999 173.425C207.036 172.862 206.278 172.031 205.724 170.932C205.178 169.832 204.906 168.473 204.906 166.854V154.364H208.728V166.393C208.728 167.732 209.099 168.797 209.84 169.589C210.582 170.382 211.545 170.778 212.729 170.778C213.445 170.778 214.157 170.599 214.864 170.241C215.58 169.884 216.173 169.342 216.641 168.618C217.119 167.893 217.353 166.973 217.344 165.857ZM233.667 174.384C232.081 174.384 230.667 173.979 229.422 173.169C228.186 172.351 227.215 171.187 226.507 169.679C225.809 168.162 225.459 166.342 225.459 164.22C225.459 162.098 225.813 160.283 226.52 158.774C227.236 157.266 228.216 156.111 229.461 155.31C230.705 154.509 232.115 154.108 233.692 154.108C234.911 154.108 235.891 154.312 236.632 154.722C237.382 155.122 237.962 155.591 238.371 156.128C238.789 156.665 239.113 157.138 239.343 157.547H239.573V147.818H243.395V174H239.662V170.945H239.343C239.113 171.362 238.78 171.839 238.346 172.376C237.919 172.913 237.331 173.382 236.581 173.783C235.831 174.183 234.86 174.384 233.667 174.384ZM234.51 171.124C235.61 171.124 236.539 170.834 237.297 170.254C238.064 169.666 238.644 168.852 239.036 167.812C239.436 166.773 239.637 165.562 239.637 164.182C239.637 162.818 239.441 161.625 239.049 160.602C238.657 159.58 238.081 158.783 237.323 158.212C236.564 157.641 235.627 157.355 234.51 157.355C233.36 157.355 232.401 157.653 231.634 158.25C230.867 158.847 230.287 159.661 229.895 160.692C229.512 161.723 229.32 162.886 229.32 164.182C229.32 165.494 229.516 166.675 229.908 167.723C230.3 168.771 230.88 169.602 231.647 170.216C232.422 170.821 233.377 171.124 234.51 171.124ZM260.897 174H256.703L266.125 147.818H270.689L280.111 174H275.918L268.516 152.574H268.311L260.897 174ZM261.6 163.747H275.202V167.071H261.6V163.747ZM296.024 165.857V154.364H299.859V174H296.101V170.599H295.896C295.445 171.648 294.72 172.521 293.723 173.22C292.734 173.911 291.503 174.256 290.028 174.256C288.767 174.256 287.651 173.979 286.679 173.425C285.716 172.862 284.957 172.031 284.403 170.932C283.858 169.832 283.585 168.473 283.585 166.854V154.364H287.408V166.393C287.408 167.732 287.778 168.797 288.52 169.589C289.261 170.382 290.224 170.778 291.409 170.778C292.125 170.778 292.837 170.599 293.544 170.241C294.26 169.884 294.852 169.342 295.321 168.618C295.798 167.893 296.033 166.973 296.024 165.857ZM314.162 154.364V157.432H303.436V154.364H314.162ZM306.312 149.659H310.135V168.234C310.135 168.976 310.245 169.534 310.467 169.909C310.689 170.276 310.974 170.527 311.324 170.663C311.681 170.791 312.069 170.855 312.487 170.855C312.794 170.855 313.062 170.834 313.292 170.791C313.522 170.749 313.701 170.714 313.829 170.689L314.52 173.847C314.298 173.932 313.983 174.017 313.574 174.102C313.164 174.196 312.653 174.247 312.039 174.256C311.034 174.273 310.096 174.094 309.227 173.719C308.358 173.344 307.654 172.764 307.118 171.98C306.581 171.196 306.312 170.212 306.312 169.027V149.659ZM322.634 162.341V174H318.812V147.818H322.583V157.56H322.826C323.286 156.503 323.989 155.663 324.935 155.041C325.881 154.419 327.117 154.108 328.643 154.108C329.989 154.108 331.165 154.385 332.171 154.939C333.185 155.493 333.969 156.32 334.523 157.419C335.086 158.51 335.367 159.874 335.367 161.51V174H331.545V161.97C331.545 160.53 331.174 159.413 330.433 158.621C329.691 157.82 328.66 157.419 327.339 157.419C326.435 157.419 325.626 157.611 324.91 157.994C324.202 158.378 323.644 158.94 323.235 159.682C322.835 160.415 322.634 161.301 322.634 162.341ZM371.434 147.818V174H367.804L354.495 154.798H354.252V174H350.302V147.818H353.958L367.279 167.045H367.522V147.818H371.434ZM385.353 174.396C383.418 174.396 381.752 173.983 380.354 173.156C378.965 172.321 377.891 171.149 377.133 169.641C376.383 168.124 376.008 166.347 376.008 164.31C376.008 162.298 376.383 160.526 377.133 158.991C377.891 157.457 378.948 156.26 380.303 155.399C381.667 154.538 383.261 154.108 385.085 154.108C386.192 154.108 387.266 154.291 388.306 154.658C389.346 155.024 390.279 155.599 391.106 156.384C391.933 157.168 392.585 158.186 393.062 159.439C393.539 160.683 393.778 162.196 393.778 163.977V165.332H378.168V162.469H390.032C390.032 161.463 389.827 160.572 389.418 159.797C389.009 159.013 388.434 158.395 387.692 157.943C386.96 157.491 386.099 157.266 385.11 157.266C384.036 157.266 383.099 157.53 382.298 158.058C381.505 158.578 380.891 159.26 380.457 160.104C380.031 160.939 379.817 161.847 379.817 162.827V165.064C379.817 166.376 380.048 167.493 380.508 168.413C380.977 169.334 381.629 170.037 382.464 170.523C383.299 171 384.275 171.239 385.391 171.239C386.116 171.239 386.776 171.136 387.373 170.932C387.969 170.719 388.485 170.403 388.92 169.986C389.354 169.568 389.687 169.053 389.917 168.439L393.535 169.091C393.245 170.156 392.725 171.089 391.975 171.891C391.234 172.683 390.3 173.301 389.175 173.744C388.059 174.179 386.785 174.396 385.353 174.396ZM400.579 154.364L404.913 162.009L409.285 154.364H413.465L407.342 164.182L413.516 174H409.336L404.913 166.662L400.502 174H396.309L402.42 164.182L396.386 154.364H400.579ZM426.556 154.364V157.432H415.83V154.364H426.556ZM418.707 149.659H422.529V168.234C422.529 168.976 422.64 169.534 422.862 169.909C423.083 170.276 423.369 170.527 423.718 170.663C424.076 170.791 424.464 170.855 424.881 170.855C425.188 170.855 425.457 170.834 425.687 170.791C425.917 170.749 426.096 170.714 426.224 170.689L426.914 173.847C426.692 173.932 426.377 174.017 425.968 174.102C425.559 174.196 425.048 174.247 424.434 174.256C423.428 174.273 422.491 174.094 421.621 173.719C420.752 173.344 420.049 172.764 419.512 171.98C418.975 171.196 418.707 170.212 418.707 169.027V149.659ZM433.303 174.243C432.604 174.243 432.003 173.996 431.5 173.501C430.998 172.999 430.746 172.393 430.746 171.686C430.746 170.987 430.998 170.391 431.5 169.896C432.003 169.393 432.604 169.142 433.303 169.142C434.002 169.142 434.603 169.393 435.105 169.896C435.608 170.391 435.86 170.987 435.86 171.686C435.86 172.155 435.74 172.585 435.502 172.977C435.272 173.361 434.965 173.668 434.581 173.898C434.198 174.128 433.772 174.243 433.303 174.243ZM440.98 154.364H444.802V175.278C444.802 176.591 444.564 177.699 444.086 178.602C443.618 179.506 442.919 180.192 441.99 180.661C441.069 181.129 439.931 181.364 438.576 181.364C438.44 181.364 438.312 181.364 438.193 181.364C438.065 181.364 437.933 181.359 437.797 181.351V178.065C437.916 178.065 438.022 178.065 438.116 178.065C438.201 178.065 438.299 178.065 438.41 178.065C439.314 178.065 439.966 177.822 440.366 177.337C440.775 176.859 440.98 176.165 440.98 175.253V154.364ZM442.872 151.334C442.207 151.334 441.636 151.112 441.159 150.669C440.69 150.217 440.456 149.68 440.456 149.058C440.456 148.428 440.69 147.891 441.159 147.447C441.636 146.996 442.207 146.77 442.872 146.77C443.537 146.77 444.103 146.996 444.572 147.447C445.049 147.891 445.288 148.428 445.288 149.058C445.288 149.68 445.049 150.217 444.572 150.669C444.103 151.112 443.537 151.334 442.872 151.334ZM464.659 159.158L461.195 159.771C461.05 159.328 460.82 158.906 460.504 158.506C460.197 158.105 459.78 157.777 459.251 157.521C458.723 157.266 458.063 157.138 457.27 157.138C456.188 157.138 455.284 157.381 454.56 157.866C453.835 158.344 453.473 158.962 453.473 159.72C453.473 160.376 453.716 160.905 454.202 161.305C454.688 161.706 455.472 162.034 456.554 162.29L459.673 163.006C461.48 163.423 462.827 164.067 463.713 164.936C464.599 165.805 465.043 166.935 465.043 168.324C465.043 169.5 464.702 170.548 464.02 171.469C463.347 172.381 462.405 173.097 461.195 173.616C459.993 174.136 458.599 174.396 457.014 174.396C454.815 174.396 453.021 173.928 451.632 172.99C450.243 172.044 449.391 170.702 449.075 168.963L452.77 168.401C453 169.364 453.473 170.092 454.189 170.587C454.905 171.072 455.838 171.315 456.989 171.315C458.241 171.315 459.243 171.055 459.993 170.536C460.743 170.007 461.118 169.364 461.118 168.605C461.118 167.991 460.888 167.476 460.428 167.058C459.976 166.641 459.281 166.325 458.344 166.112L455.02 165.384C453.188 164.966 451.832 164.301 450.955 163.389C450.085 162.477 449.651 161.322 449.651 159.925C449.651 158.766 449.974 157.751 450.622 156.882C451.27 156.013 452.165 155.335 453.307 154.849C454.449 154.355 455.757 154.108 457.232 154.108C459.354 154.108 461.024 154.568 462.243 155.489C463.462 156.401 464.267 157.624 464.659 159.158ZM493.359 154.696C493.223 153.486 492.661 152.548 491.672 151.884C490.683 151.21 489.439 150.874 487.939 150.874C486.865 150.874 485.936 151.044 485.152 151.385C484.368 151.717 483.759 152.178 483.324 152.766C482.898 153.345 482.685 154.006 482.685 154.747C482.685 155.369 482.83 155.906 483.119 156.358C483.418 156.81 483.805 157.189 484.283 157.496C484.768 157.794 485.288 158.045 485.842 158.25C486.396 158.446 486.929 158.608 487.44 158.736L489.997 159.401C490.832 159.605 491.689 159.882 492.567 160.232C493.445 160.581 494.259 161.041 495.009 161.612C495.759 162.183 496.364 162.891 496.824 163.734C497.293 164.578 497.527 165.588 497.527 166.764C497.527 168.247 497.143 169.564 496.376 170.714C495.618 171.865 494.514 172.773 493.065 173.438C491.625 174.102 489.882 174.435 487.837 174.435C485.876 174.435 484.18 174.124 482.749 173.501C481.317 172.879 480.196 171.997 479.386 170.855C478.577 169.705 478.129 168.341 478.044 166.764H482.007C482.084 167.71 482.391 168.499 482.928 169.129C483.473 169.751 484.168 170.216 485.011 170.523C485.864 170.821 486.797 170.97 487.811 170.97C488.928 170.97 489.92 170.795 490.79 170.446C491.668 170.088 492.358 169.594 492.861 168.963C493.364 168.324 493.615 167.578 493.615 166.726C493.615 165.95 493.393 165.315 492.95 164.821C492.516 164.327 491.923 163.918 491.173 163.594C490.432 163.27 489.592 162.984 488.655 162.737L485.561 161.893C483.464 161.322 481.803 160.483 480.575 159.375C479.357 158.267 478.747 156.801 478.747 154.977C478.747 153.469 479.156 152.152 479.974 151.027C480.793 149.902 481.901 149.028 483.298 148.406C484.696 147.776 486.273 147.46 488.028 147.46C489.801 147.46 491.365 147.771 492.72 148.393C494.084 149.016 495.158 149.872 495.942 150.963C496.726 152.045 497.135 153.29 497.169 154.696H493.359ZM510.723 174H502.248V147.818H510.992C513.557 147.818 515.76 148.342 517.601 149.391C519.442 150.43 520.853 151.926 521.833 153.878C522.821 155.821 523.316 158.152 523.316 160.871C523.316 163.598 522.817 165.942 521.82 167.902C520.831 169.862 519.4 171.371 517.525 172.428C515.65 173.476 513.382 174 510.723 174ZM506.198 170.548H510.506C512.5 170.548 514.158 170.173 515.479 169.423C516.8 168.665 517.789 167.57 518.445 166.138C519.101 164.697 519.429 162.942 519.429 160.871C519.429 158.817 519.101 157.074 518.445 155.642C517.797 154.21 516.83 153.124 515.543 152.382C514.256 151.641 512.658 151.27 510.749 151.27H506.198V170.548ZM528.228 174V147.818H532.178V160.321H532.498L543.479 147.818H548.452L537.893 159.605L548.491 174H543.735L535.272 162.303L532.178 165.857V174H528.228Z" fill="#FCFCFC"/>
<g clip-path="url(#clip4_2671_4043)">
<path d="M1040.13 46.1648C1038.98 43.5466 1036.75 44.9284 1035.4 46.7466L1033.49 50.0557L1046.18 72.0011H1055L1040.13 46.1648Z" fill="url(#paint2_linear_2671_4043)"/>
<path d="M1024.13 42.8177C1022 40.2359 1017.87 39.2905 1014.78 40.7814C1013.29 41.4723 1012.05 42.545 1011.18 44.0359C1011.18 44.0541 995 71.9996 995 71.9996H1004.05L1018.09 48.0177L1019.25 45.9995C1019.47 45.6359 1021.93 41.5086 1024.13 42.8177Z" fill="url(#paint3_linear_2671_4043)"/>
<path d="M1013.84 67.4736C1014.33 68.2554 1018.11 75.1282 1018.67 75.6009C1020.96 76.6009 1022.53 72.7463 1023.49 71.2373L1017.64 61.0918L1013.84 67.4736Z" fill="url(#paint4_linear_2671_4043)"/>
<path d="M1031.96 61.0918L1025.33 72.6009C1025.33 72.6009 1022.47 78.6918 1019.87 77.5463C1021.31 79.1645 1023.44 80.0736 1025.6 80.0009C1028.09 79.8918 1030.38 78.5463 1031.65 76.3463L1036.27 68.3282C1036.22 68.2373 1032.02 61.1645 1031.96 61.0918Z" fill="url(#paint5_linear_2671_4043)"/>
<path d="M1037.8 42.6002C1035.47 39.8911 1031.24 39.182 1028.18 41.0365C1025.29 42.4911 1022.4 49.5456 1020.62 52.1275C1020.65 52.2002 1025.04 59.7638 1025.07 59.8365C1026.71 57.0002 1030.45 50.5093 1032.05 47.7456C1033.16 45.9275 1035.07 41.2911 1037.8 42.6002Z" fill="url(#paint6_linear_2671_4043)"/>
<path d="M1024.76 44.8543C1023.15 47.4361 1021.67 50.5997 1020.62 52.127L1019.38 49.9997C1020.16 48.5452 1022.62 44.0361 1024.76 44.8543Z" fill="url(#paint7_linear_2671_4043)"/>
<path d="M1085.45 54.3095C1084.31 54.2913 1083.18 54.5459 1082.16 55.055C1081.15 55.5641 1080.25 56.3277 1079.6 57.255C1078.96 56.3277 1078.09 55.5822 1077.09 55.0731C1076.09 54.564 1074.96 54.3095 1073.84 54.3277C1069.35 54.3277 1066.29 57.9459 1066.29 63.3095V71.9822H1069.75V63.3095C1069.75 59.8186 1071.29 57.7459 1073.87 57.7459C1076.45 57.7459 1077.93 59.8913 1077.93 63.3095V71.9822H1081.2V63.3095C1081.2 59.8186 1082.75 57.7459 1085.35 57.7459C1087.95 57.7459 1089.38 59.8913 1089.38 63.3095V71.9822H1092.84V63.3095C1092.85 57.9277 1089.89 54.3095 1085.45 54.3095Z" fill="white"/>
<path d="M1103.62 54.0195C1098.64 54.0195 1095 57.8014 1095 63.0014C1095 68.2014 1098.62 71.9832 1103.62 71.9832C1108.62 71.9832 1112.24 68.2014 1112.24 63.0014C1112.24 57.8014 1108.58 54.0195 1103.62 54.0195ZM1103.62 68.565C1100.56 68.565 1098.44 66.2923 1098.44 63.0014C1098.44 59.7104 1100.51 57.4377 1103.62 57.4377C1106.71 57.4377 1108.76 59.6741 1108.76 63.0014C1108.76 66.3286 1106.64 68.565 1103.62 68.565Z" fill="white"/>
<path d="M1122.4 54.3105C1117.87 54.3105 1114.46 58.1651 1114.46 63.2924V71.9651H1117.91V63.2924C1117.91 60.0742 1119.76 57.7287 1122.42 57.7287C1125.07 57.7287 1126.82 60.0742 1126.82 63.2924V71.9651H1130.27V63.2924C1130.31 58.1833 1126.91 54.3105 1122.4 54.3105Z" fill="white"/>
<path d="M1141 54.0195C1136.02 54.0195 1132.38 57.8014 1132.38 63.0014C1132.38 68.2014 1136 72.0014 1141 72.0014C1146 72.0014 1149.56 68.2195 1149.56 63.0195C1149.56 57.8195 1145.96 54.0195 1141 54.0195ZM1141 68.565C1137.95 68.565 1135.82 66.2923 1135.82 63.0014C1135.82 59.7104 1137.91 57.4377 1141 57.4377C1144.09 57.4377 1146.15 59.6741 1146.15 63.0014C1146.15 66.3286 1144.04 68.565 1141 68.565Z" fill="white"/>
<path d="M1160.51 68.5273C1159.8 68.5273 1159.09 68.4 1158.44 68.1091C1157.78 67.8364 1157.18 67.4182 1156.69 66.9091C1156.2 66.4 1155.82 65.7819 1155.56 65.1091C1155.31 64.4364 1155.22 63.7273 1155.26 63.0182C1155.22 62.3091 1155.31 61.6 1155.56 60.9273C1155.82 60.2546 1156.18 59.6364 1156.69 59.1273C1157.18 58.6182 1157.78 58.2 1158.44 57.9273C1159.09 57.6546 1159.8 57.5091 1160.51 57.5091C1161.55 57.4364 1162.58 57.7091 1163.44 58.2909C1164.29 58.8728 1164.95 59.7273 1165.26 60.7091H1168.8C1168.46 58.8 1167.42 57.0728 1165.89 55.8728C1164.36 54.6728 1162.46 54.0546 1160.51 54.1455C1159.35 54.1273 1158.2 54.3455 1157.11 54.8C1156.04 55.2364 1155.06 55.9091 1154.26 56.7455C1153.46 57.5819 1152.82 58.5637 1152.4 59.6546C1151.98 60.7455 1151.8 61.891 1151.86 63.0546C1151.82 64.2182 1152 65.3637 1152.42 66.4546C1152.84 67.5273 1153.46 68.5273 1154.27 69.3455C1155.07 70.1819 1156.06 70.8364 1157.13 71.291C1158.2 71.7455 1159.35 71.9637 1160.51 71.9637C1162.51 72.0364 1164.46 71.3819 1165.98 70.1091C1167.53 68.8364 1168.55 67.0546 1168.86 65.091H1165.35C1165.06 66.1273 1164.42 67.0364 1163.55 67.6728C1162.66 68.2728 1161.6 68.5819 1160.51 68.5273Z" fill="white"/>
<path d="M1174.45 48.3457H1171.18V71.8003H1174.45V48.3457Z" fill="white"/>
<path d="M1185.33 54.0195C1180.35 54.0195 1176.71 57.8014 1176.71 63.0014C1176.71 68.2014 1180.33 71.9832 1185.33 71.9832C1190.33 71.9832 1193.89 68.2014 1193.89 63.0014C1193.89 57.8014 1190.29 54.0195 1185.33 54.0195ZM1185.33 68.565C1182.27 68.565 1180.15 66.2923 1180.15 63.0014C1180.15 59.7104 1182.22 57.4377 1185.33 57.4377C1188.42 57.4377 1190.53 59.6923 1190.53 63.0014C1190.53 66.3104 1188.36 68.565 1185.33 68.565Z" fill="white"/>
<path d="M1208.64 63.0184C1208.64 66.2366 1206.69 68.5821 1204.15 68.5821C1201.6 68.5821 1199.55 66.2548 1199.55 63.0184V54.3457H1196.09V63.0184C1196.09 68.1275 1199.53 72.0002 1204.07 72.0002C1208.64 72.0002 1211.91 68.1275 1211.91 63.0184V54.3457H1208.64V63.0184Z" fill="white"/>
<path d="M1227.91 47.9824V55.9642C1226.42 54.637 1224.49 53.8915 1222.47 53.9097C1217.65 53.9097 1214.04 57.7642 1214.04 62.8915C1214.04 68.0188 1217.67 71.8733 1222.67 71.8733C1227.67 71.8733 1231.36 68.0915 1231.36 62.8915V47.9824H1227.91ZM1222.65 68.5642C1219.13 68.5642 1217.51 65.6915 1217.51 63.0006C1217.45 62.2915 1217.55 61.5824 1217.78 60.9097C1218.02 60.237 1218.38 59.6188 1218.87 59.0915C1219.36 58.5642 1219.95 58.1461 1220.6 57.8733C1221.25 57.5824 1221.96 57.437 1222.67 57.437C1223.38 57.437 1224.09 57.5824 1224.75 57.8733C1225.4 58.1642 1225.98 58.5824 1226.47 59.0915C1226.96 59.6188 1227.33 60.237 1227.56 60.9097C1227.8 61.5824 1227.89 62.2915 1227.84 63.0006C1227.84 65.7642 1226.24 68.5642 1222.65 68.5642Z" fill="white"/>
</g>
</g>
<defs>
<filter id="filter0_f_2671_4043" x="-88.7158" y="-375.049" width="1589.68" height="975.59" filterUnits="userSpaceOnUse" color-interpolation-filters="sRGB">
<feFlood flood-opacity="0" result="BackgroundImageFix"/>
<feBlend mode="normal" in="SourceGraphic" in2="BackgroundImageFix" result="shape"/>
<feGaussianBlur stdDeviation="150" result="effect1_foregroundBlur_2671_4043"/>
</filter>
<filter id="filter1_f_2671_4043" x="608" y="-57" width="1238" height="1128" filterUnits="userSpaceOnUse" color-interpolation-filters="sRGB">
<feFlood flood-opacity="0" result="BackgroundImageFix"/>
<feBlend mode="normal" in="SourceGraphic" in2="BackgroundImageFix" result="shape"/>
<feGaussianBlur stdDeviation="110" result="effect1_foregroundBlur_2671_4043"/>
</filter>
<filter id="filter2_f_2671_4043" x="-800" y="-800" width="1234" height="1234" filterUnits="userSpaceOnUse" color-interpolation-filters="sRGB">
<feFlood flood-opacity="0" result="BackgroundImageFix"/>
<feBlend mode="normal" in="SourceGraphic" in2="BackgroundImageFix" result="shape"/>
<feGaussianBlur stdDeviation="125" result="effect1_foregroundBlur_2671_4043"/>
</filter>
<linearGradient id="paint0_linear_2671_4043" x1="96.4444" y1="96.7777" x2="112.222" y2="116.333" gradientUnits="userSpaceOnUse">
<stop stop-color="white"/>
<stop offset="1" stop-color="white" stop-opacity="0"/>
</linearGradient>
<linearGradient id="paint1_linear_2671_4043" x1="101.778" y1="69" x2="101.688" y2="92.4999" gradientUnits="userSpaceOnUse">
<stop stop-color="white"/>
<stop offset="1" stop-color="white" stop-opacity="0"/>
</linearGradient>
<linearGradient id="paint2_linear_2671_4043" x1="1023.23" y1="59.6703" x2="1071.37" y2="56.9658" gradientUnits="userSpaceOnUse">
<stop stop-color="#0586FD"/>
<stop offset="0.88" stop-color="#111FFF"/>
</linearGradient>
<linearGradient id="paint3_linear_2671_4043" x1="990.031" y1="84.277" x2="1042.16" y2="7.16322" gradientUnits="userSpaceOnUse">
<stop stop-color="#0586FD"/>
<stop offset="0.88" stop-color="#111FFF"/>
</linearGradient>
<linearGradient id="paint4_linear_2671_4043" x1="992.557" y1="90.2196" x2="1061.97" y2="32.7367" gradientUnits="userSpaceOnUse">
<stop stop-color="#0586FD"/>
<stop offset="0.88" stop-color="#111FFF"/>
</linearGradient>
<linearGradient id="paint5_linear_2671_4043" x1="1006.62" y1="91.753" x2="1058.09" y2="45.1602" gradientUnits="userSpaceOnUse">
<stop stop-color="#0586FD"/>
<stop offset="0.88" stop-color="#111FFF"/>
</linearGradient>
<linearGradient id="paint6_linear_2671_4043" x1="1021.11" y1="63.3363" x2="1040.6" y2="24.9083" gradientUnits="userSpaceOnUse">
<stop stop-color="#0586FD"/>
<stop offset="0.88" stop-color="#111FFF"/>
</linearGradient>
<linearGradient id="paint7_linear_2671_4043" x1="965.111" y1="89.4959" x2="1058.67" y2="22.0912" gradientUnits="userSpaceOnUse">
<stop stop-color="#0586FD"/>
<stop offset="0.88" stop-color="#111FFF"/>
</linearGradient>
<clipPath id="clip0_2671_4043">
<path d="M0 20C0 8.9543 8.95431 0 20 0H1260C1271.05 0 1280 8.95431 1280 20V205C1280 216.046 1271.05 225 1260 225H20C8.95431 225 0 216.046 0 205V20Z" fill="white"/>
</clipPath>
<clipPath id="clip1_2671_4043">
<path d="M48 57C48 50.3726 53.3726 45 60 45H116C122.627 45 128 50.3726 128 57V113C128 119.627 122.627 125 116 125H60C53.3726 125 48 119.627 48 113V57Z" fill="white"/>
</clipPath>
<clipPath id="clip2_2671_4043">
<rect width="80" height="80" fill="white" transform="translate(48 45)"/>
</clipPath>
<clipPath id="clip3_2671_4043">
<rect width="80" height="80" fill="white" transform="translate(48 45)"/>
</clipPath>
<clipPath id="clip4_2671_4043">
<rect width="236.364" height="40" fill="white" transform="translate(995 40)"/>
</clipPath>
</defs>
</svg>
